# xmcd
#
# Track frame offsets:
# 150
# 12572
# 27552
# 42860
# 56917
# 69247
# 82602
# 95882
# 108255
# 120240
# 132000
# 144597
#
# Disc length: 2115 seconds
#
#
# Revision: 0
# Processed by: cddbd v1.5.1PL0 Copyright (c) Steve Scherf et al.
# Submitted via: FreeRIP 2.90 
#
DISCID=9b08410c
DTITLE=Tonico e Tinoco - Tonico e Tinoco
DYEAR=1900
DGENRE=Country
TTITLE0=Moreninha Linda
TTITLE1=Chico Mineiro
TTITLE2=Tristeza do Jeca
TTITLE3=Adeus Morena Adeus
TTITLE4=Destinos Iguais
TTITLE5=Irmão da Estrada
TTITLE6=Cana Verde
TTITLE7=Pé de Ipê
TTITLE8=Adeus Campina da Serra
TTITLE9=Curitibana
TTITLE10=Carro de Boi
TTITLE11=Moça Folgazona
EXTD=
EXTT0=
EXTT1=
EXTT2=
EXTT3=
EXTT4=
EXTT5=
EXTT6=
EXTT7=
EXTT8=
EXTT9=
EXTT10=
EXTT11=
PLAYORDER=
